:FULLY-SPECIFIED
:FORCE-ALL-JOINTS-BE-3DOF
:DEGREES
714
root -11.7101 13.9154 -38.3003 511.903 -61.6129 213.469
lfemur -65.0491 24.799 -1.10659
ltibia 75.8684 0 0
lfoot -8.31884 -7.73925 0
ltoes -3.61104 0 0
rfemur 9.34566 -10.7666 11.803
rtibia 40.8081 0 0
rfoot -24.8025 -27.7399 0
rtoes -29.3673 0 0
lowerback 12.2329 1.43572 8.82392
upperback -1.69531 3.47472 5.87973
thorax -8.58475 1.28562 0.703894
lowerneck -4.0156 4.9539 0.983659
upperneck 3.31785 6.51915 0.760707
head 1.71357 3.28006 0.247274
lclavicle -1.87602e-15 2.96433e-14 0
lhumerus 63.0872 14.9591 108.08
lradius 12.1679 0 0
lwrist -70.5964 0 0
lhand -33.0004 40.4883 0
lfingers 7.12502 0 0
lthumb -6.66841 68.2278 0
rclavicle -1.94512e-14 -3.47603e-14 0
rhumerus -75.1583 19.2959 -95.4432
rradius 114.729 0 0
rwrist -66.2413 0 0
rhand -8.32369 -40.2711 0
rfingers 7.12502 0 0
rthumb 17.4897 -69.5921 0
715
root -11.718 13.9096 -38.3053 511.849 -61.7512 213.576
lfemur -65.2052 24.8629 -1.16527
ltibia 76.0293 0 0
lfoot -8.40488 -7.79184 0
ltoes -3.67104 0 0
rfemur 9.40548 -10.8102 11.7968
rtibia 40.7172 0 0
rfoot -24.8041 -27.7458 0
rtoes -29.6593 0 0
lowerback 12.2268 1.43666 8.87247
upperback -1.73131 3.4857 5.83519
thorax -8.61478 1.28691 0.627392
lowerneck -3.92437 4.90705 0.903776
upperneck 3.33837 6.45654 0.886993
head 1.69679 3.25039 0.29516
lclavicle -3.44623e-15 2.79126e-14 0
lhumerus 63.0798 14.9594 108.016
lradius 12.1528 0 0
lwrist -70.5713 0 0
lhand -33.034 40.8441 0
lfingers 7.12502 0 0
lthumb -6.62552 68.0117 0
rclavicle -2.07615e-14 -3.37198e-14 0
rhumerus -75.1609 19.2822 -95.4457
rradius 114.603 0 0
rwrist -65.9242 0 0
rhand -7.82703 -39.7946 0
rfingers 7.12502 0 0
rthumb 17.9736 -69.0635 0
716
root -11.7251 13.9034 -38.3128 511.669 -61.8318 213.799
lfemur -65.3628 24.9274 -1.22447
ltibia 76.181 0 0
lfoot -8.49238 -7.84531 0
ltoes -3.74081 0 0
rfemur 9.45077 -10.8432 11.7921
rtibia 40.6253 0 0
rfoot -24.8056 -27.7516 0
rtoes -29.879 0 0
lowerback 12.2178 1.38088 8.87114
upperback -1.69375 3.406 5.86615
thorax -8.57428 1.2505 0.676424
lowerneck -4.24429 4.78152 0.853209
upperneck 3.60023 6.27983 1.01345
head 1.8327 3.16561 0.35231
lclavicle -5.27199e-15 2.59002e-14 0
lhumerus 63.0706 14.9597 107.936
lradius 12.136 0 0
lwrist -70.5554 0 0
lhand -33.0666 41.1898 0
lfingers 7.12502 0 0
lthumb -6.58068 67.7857 0
rclavicle -2.21391e-14 -3.26258e-14 0
rhumerus -75.163 19.2712 -95.4476
rradius 114.481 0 0
rwrist -65.6089 0 0
rhand -7.34173 -39.3289 0
rfingers 7.12502 0 0
rthumb 18.4495 -68.5437 0
717
root -11.7322 13.896 -38.3187 511.554 -61.8978 213.978
lfemur -65.5203 24.9918 -1.28367
ltibia 76.3209 0 0
lfoot -8.58035 -7.89907 0
ltoes -3.81904 0 0
rfemur 9.47947 -10.8641 11.7891
rtibia 40.5334 0 0
rfoot -24.8071 -27.7572 0
rtoes -30.0174 0 0
lowerback 12.162 1.34315 8.88394
upperback -1.68113 3.34861 5.88281
thorax -8.5314 1.22388 0.699209
lowerneck -4.54037 4.76204 0.317147
upperneck 3.82351 6.25781 1.53309
head 1.92355 3.16077 0.614645
lclavicle -7.31923e-15 2.36437e-14 0
lhumerus 63.0599 14.96 107.843
lradius 12.118 0 0
lwrist -70.5499 0 0
lhand -33.0978 41.5204 0
lfingers 7.12502 0 0
lthumb -6.53437 67.5524 0
rclavicle -2.35706e-14 -3.14891e-14 0
rhumerus -75.1645 19.2629 -95.4491
rradius 114.362 0 0
rwrist -65.2988 0 0
rhand -6.87536 -38.8815 0
rfingers 7.12502 0 0
rthumb 18.9094 -68.0415 0
718
root -11.7392 13.8909 -38.3252 511.425 -61.9606 214.167
lfemur -65.6764 25.0557 -1.34234
ltibia 76.4465 0 0
lfoot -8.66785 -7.95254 0
ltoes -3.90443 0 0
rfemur 9.4895 -10.8714 11.7881
rtibia 40.4425 0 0
rfoot -24.8085 -27.7625 0
rtoes -30.0656 0 0
lowerback 12.1267 1.36483 8.97196
upperback -1.68368 3.38502 5.88358
thorax -8.50746 1.23745 0.645697
lowerneck -4.70078 4.65894 -0.00566481
upperneck 3.96456 6.12312 1.84973
head 1.9794 3.09758 0.770951
lclavicle -9.55387e-15 2.11807e-14 0
lhumerus 63.0479 14.9604 107.738
lradius 12.0992 0 0
lwrist -70.5912 0 0
lhand -33.1272 41.831 0
lfingers 7.12502 0 0
lthumb -6.48708 67.3141 0
rclavicle -2.50425e-14 -3.03203e-14 0
rhumerus -75.1655 19.2578 -95.45
rradius 114.249 0 0
rwrist -64.9974 0 0
rhand -6.43549 -38.4594 0
rfingers 7.12502 0 0
rthumb 19.3452 -67.5655 0
719
root -11.7464 13.8874 -38.3318 511.409 -62.0259 214.239
lfemur -65.8297 25.1185 -1.39996
ltibia 76.5552 0 0
lfoot -8.75389 -8.00513 0
ltoes -3.99568 0 0
rfemur 9.49009 -10.8691 11.7867
rtibia 40.3534 0 0
rfoot -24.8098 -27.7674 0
rtoes -30.0718 0 0
lowerback 12.081 1.33624 8.94513
upperback -1.68873 3.33776 5.88804
thorax -8.49063 1.21682 0.675024
lowerneck -3.98543 4.74754 1.12415
upperneck 3.40362 6.23654 0.72359
head 1.74188 3.14012 0.205862
lclavicle -1.19418e-14 1.85486e-14 0
lhumerus 63.0346 14.9609 107.623
lradius 12.0797 0 0
lwrist -70.7101 0 0
lhand -33.1541 42.1164 0
lfingers 7.12502 0 0
lthumb -6.43931 67.0734 0
rclavicle -2.65413e-14 -2.91301e-14 0
rhumerus -75.1658 19.256 -95.4503
rradius 114.142 0 0
rwrist -64.7081 0 0
rhand -6.02971 -38.0701 0
rfingers 7.12502 0 0
rthumb 19.7489 -67.1245 0
720
root -11.7542 13.8828 -38.3366 511.405 -62.1112 214.314
lfemur -65.9788 25.1795 -1.456
ltibia 76.6442 0 0
lfoot -8.83752 -8.05624 0
ltoes -4.09149 0 0
rfemur 9.49179 -10.8625 11.7825
rtibia 40.2671 0 0
rfoot -24.811 -27.7718 0
rtoes -30.0895 0 0
lowerback 12.0241 1.32197 8.99452
upperback -1.71075 3.31983 5.86059
thorax -8.47859 1.20577 0.622903
lowerneck -4.05436 4.73972 0.765257
upperneck 3.4436 6.23443 0.98709
head 1.74606 3.14052 0.348629
lclavicle -1.44491e-14 1.57851e-14 0
lhumerus 63.0202 14.9613 107.499
lradius 12.0602 0 0
lwrist -70.8992 0 0
lhand -33.1782 42.3718 0
lfingers 7.12502 0 0
lthumb -6.39154 66.8326 0
rclavicle -2.80535e-14 -2.79293e-14 0
rhumerus -75.1676 19.255 -95.4542
rradius 114.042 0 0
rwrist -64.4346 0 0
rhand -5.66558 -37.7207 0
rfingers 7.12502 0 0
rthumb 20.1125 -66.7274 0
721
root -11.7599 13.879 -38.3415 511.403 -62.1322 214.349
lfemur -66.1223 25.2383 -1.50993
ltibia 76.711 0 0
lfoot -8.91777 -8.10528 0
ltoes -4.19056 0 0
rfemur 9.49454 -10.8519 11.7759
rtibia 40.1846 0 0
rfoot -24.812 -27.7757 0
rtoes -30.1179 0 0
lowerback 12.0139 1.34558 9.01253
upperback -1.71487 3.35281 5.85421
thorax -8.47415 1.22084 0.600265
lowerneck -4.04538 4.72992 0.726988
upperneck 3.45724 6.22307 0.999831
head 1.74721 3.13467 0.358529
lclavicle -1.70415e-14 1.29277e-14 0
lhumerus 63.0051 14.9618 107.367
lradius 12.0407 0 0
lwrist -71.1512 0 0
lhand -33.199 42.5919 0
lfingers 7.12502 0 0
lthumb -6.34425 66.5943 0
rclavicle -2.95657e-14 -2.67284e-14 0
rhumerus -75.1728 19.252 -95.4654
rradius 113.952 0 0
rwrist -64.1802 0 0
rhand -5.35067 -37.4186 0
rfingers 7.12502 0 0
rthumb 20.428 -66.3828 0
